<?xml version="1.0" encoding="utf-8"?>
<!-- Generator: Adobe Illustrator 23.0.1, SVG Export Plug-In . SVG Version: 6.00 Build 0)  -->
<svg version="1.1" id="Layer_1" xmlns="http://www.w3.org/2000/svg" xmlns:xlink="http://www.w3.org/1999/xlink" x="0px" y="0px"
	 viewBox="0 0 2185 2500" style="enable-background:new 0 0 2185 2500;" xml:space="preserve">
<style type="text/css">
	.st0{fill:#F15A35;}
	.st1{fill:#FBCB1A;}
	.st2{fill:#F78C1E;}
</style>
<path class="st0" d="M0.1,53.5c0-18.9,10-36.8,26.7-46.2s36.8-9.5,53.5,0l2077.3,1187.3c16.7,9.5,26.7,27.3,26.7,46.2
	c0,18.9-10,36.8-26.7,46.2L91.4,2492.8c-16.7,9.5-36.8,9.5-53.5,0c-16.7-9.5-26.7-27.3-26.7-46.2C10.7,2446.5,0.1,53.5,0.1,53.5
	L0.1,53.5z"/>
<path class="st1" d="M1748.8,1251.9c0-462.2-374.8-837-837-837s-837,374.8-837,837c0,423.3,314.1,773,721.8,829.2l894.4-522.9
	C1728.2,1463.6,1748.8,1360.5,1748.8,1251.9L1748.8,1251.9z M911.8,1792.2c-298.5,0-540.2-241.7-540.2-540.2
	s241.7-540.2,540.2-540.2S1452,953.4,1452,1251.9S1210.3,1792.2,911.8,1792.2L911.8,1792.2z"/>
<circle class="st2" cx="911.1" cy="1250" r="543.2"/>
<g>
	<path class="st1" d="M970.2,1545.1l211.2-283.2c26-34.9,1.1-84.4-42.4-84.4l-422.4,0c-43.5,0-68.4,49.6-42.4,84.4l211.2,283.2
		C906.6,1573.4,949,1573.4,970.2,1545.1z"/>
	<path class="st1" d="M962.1,933.6h-76.6c-17.9,0-32.4,14.5-32.4,32.4v298.2c0,17.9,14.5,32.4,32.4,32.4h76.6
		c17.9,0,32.4-14.5,32.4-32.4V966C994.5,948.1,980,933.6,962.1,933.6z"/>
</g>
</svg>
